<svg xmlns="http://www.w3.org/2000/svg" viewBox="0 0 64 64" fill="none">
  <!-- Green circular background -->
  <circle cx="32" cy="32" r="32" fill="#10b981"/>
  
  <!-- Seed/leaf icon in white -->
  <path d="M32 12 C28 12, 24 16, 24 22 C24 28, 28 32, 32 32 C32 32, 36 28, 36 22 C36 16, 32 12, 32 12 Z" fill="#ffffff"/>
  <path d="M32 32 C28 32, 24 36, 24 42 C24 48, 28 52, 32 52 C36 52, 40 48, 40 42 C40 36, 36 32, 32 32 Z" fill="#ffffff" opacity="0.8"/>
  <circle cx="32" cy="32" r="3" fill="#ffffff"/>
  
  <!-- Small dots for seeds -->
  <circle cx="28" cy="24" r="1.5" fill="#059669"/>
  <circle cx="32" cy="20" r="1.5" fill="#059669"/>
  <circle cx="36" cy="24" r="1.5" fill="#059669"/>
</svg>
